<svg xmlns="http://www.w3.org/2000/svg" width="277" height="356" fill="none" viewBox="0 0 277 356">
  <path fill="#fff" d="m139.1 43.67.01.12.18.13.2-.1 1.85-2.57 2.01-2.43 3.28-3.39 3.63-3.09 4.73-3.21 2.2-1.13 2.08-.81 2.98-.87 2.74-.59 2.47-.3 2.23-.03 2.23.23 2.12.45 1.99.67 1.88.88 2.53 1.69 1.55 1.55 1.03 1.76.37 1.2.17 1.28-.25 2.81-.73 2.17-1.17 1.8-1.9 1.61-2.49 1.11-6.56 2.44-2.37 1.24-2.42 1.76-2.53 2.3-3.4 3.53-.51.54-.16.36.33.22 11.24 3.19 6.81 2.49 7.33 3.46 7.05 4.16 6.74 4.87 6.46 5.58 6.1 6.15 5.22 6.2 4.28 6.18 1.8 3.1 1.62 3.19.41.47.61.16 8.05-.09 4.47.14 3.52.4 5.18 1.26 5.03 1.93 4.87 2.59 4.54 3.17 4.07 3.64 3.59 4.11 2.99 4.47 2.28 4.64 1.37 4.11.86 4.37.35 4.6-.17 4.86-.45 3.56-.74 3.42-1.02 3.29-1.31 3.16-2.3 4.2-2.87 3.94-3.42 3.67-3.98 3.42-2.71 1.9-2.97 1.73-3.24 1.54-3.49 1.36-2.49.75-2.68.55-2.86.35-3.05.16-6.41-.06-4.9-.48-1.06-.02-.77.33-.27.28-4.3 5.92-.85 1.35-.59 1.33-.32 1.32-.06 1.31v.03l.09 4.54-.32 4.41-.72 4.28-1.12 4.15-2.19 5.46-1.43 2.72-1.66 2.74-4.05 5.54-4.77 5.3-5.17 4.7-4.5 3.46-4.65 3.15-4.8 2.83-4.94 2.51-5.42 2.32-5.58 1.96-5.74 1.61-5.92 1.25-5.95.87-5.92.48-5.89.09-5.85-.3-5.5-.65-6.49-1.2-6.29-1.62-6.09-2.06-5.89-2.48-6.2-3.2-5.97-3.7-5.72-4.22-5.49-4.73-4.05-4.09-3.59-4.32-3.13-4.55-2.67-4.78-.86-1.81-1.15-2.81-1.39-4.61-.85-4.82-.3-5.02.23-5.21-.01-.44-.17-.47-2.6-4.29-2.69-3.37-.91-.72-1.01-.39-1.12-.13-3.28.41-.91.16-2.26.3-1.71.02-6.11-.74-5.44-1.14-4.76-1.54-4.1-1.94-4.46-2.84-3.96-3.17-3.46-3.52-2.97-3.84-2.42-4.07-1.95-4.39-1.47-4.71-1.01-5.03-.27-2.76-.01-2.82.25-2.88.52-2.94 1.32-4.86 1.77-4.52 2.21-4.16 2.65-3.82 3.36-3.71 3.87-3.31 4.24-2.87 4.35-2.33 4.47-1.78 4.58-1.24 1.59-.3 3.2-.4 3.6-.19 8.38.22.5.16.12.09.22.2.12.06.32-.31 2.51-4.51 2.68-4.32 2.83-4.11 3-3.9 3.17-3.71 3.32-3.5 3.49-3.3 3.65-3.1L80.44 73l4.33-2.9 4.53-2.66 4.73-2.41 4.91-2.18 5.1-1.94 5.3-1.71 5.49-1.46.6-.34.25-.65.18-3.31-.05-3.37.1-2.53.48-3.67 2.13-10.75.95-3.43 1.33-3.56 1.68-3.59 1.98-3.52 2.15-3.23 2.35-3.01 2.48-2.64 2.45-2.15 2.54-1.83 2.62-1.61 2.7-1.38 2.79-1.15 3.68-1.15 3.82-.77 2.88-.1 2.62.58 1.96 1 1.79 1.46 1.18 1.43.78 1.5.45 1.73.06 1.99-.36 2.27-.77 2.64-.51 1.2-1.09 1.62-1.5 1.47-1.98 1.39-2.84 1.54-2.34 1.26-1.54 1.03-2.49 2.13-2.21 2.29-1.93 2.44-1.64 2.61-1.17 2.35-.97 2.46-.77 2.58-.55 2.7ZM93.59 183.93l-4.37 4.42-2.38 2.67-1.82 2.95-.89 2.08-.66 2.16-.4 2.22-.16 2.26.08 2.28.33 2.29.57 2.28.81 2.24 1.18 2.53 1.36 2.38 1.53 2.23 1.71 2.06 1.09 1.15 2.34 2.18 2.52 2.05 2.75 1.97 2.89 1.82 6.11 3.13 3.14 1.28 3.16 1.06 6.98 1.81 6.95 1.19 6.92.58 6.89-.03 6.02-.53 5.99-1.01 5.97-1.47 5.95-1.95 2.79-1.14 2.74-1.34 5.32-3.27 5.12-4.09 4.9-4.88 1.74-2.06 1.4-2.01 1.08-1.96.75-1.9.58-2.27.36-2.36.14-2.4-.09-2.42-.32-2.39-.54-2.33-.74-2.14-.95-2.02-.96-1.53-1.33-1.67-4.19-4.27-2.04-1.99-.05-.05-.12-.5.29-.43 4.8-3.14 3.69-2.77 2.36-2.19 2.18-2.52 2.01-2.85 1.83-3.18 1.27-2.88.94-3.11.63-3.37.27-3.46-.09-3.41-.44-3.34-.77-3.1-1.11-2.89-2.23-4.17-2.57-3.67-2.93-3.18-3.28-2.68-3.79-2.26-4.16-1.71-4.55-1.18-4.93-.64-4.74-.07-4.42.51-4.1 1.07-3.78 1.64-2.98 1.74-2.76 1.94-2.54 2.14-2.33 2.33-2.66 3.28-2.31 3.6-.42.29-.49-.16-.09-.12-3.21-4.79-2.96-3.48-3.19-2.96-3.42-2.44-3.65-1.93-4.43-1.57-4.74-.9-5.04-.22-5.33.44-4.67 1.06-4.45 1.78-4.25 2.5-3.84 3.09-3.37 3.62-2.82 4.06-2.13 4.33-1.46 4.61-.55 3.25-.14 3.25.17 2.49.41 2.48.75 2.92.99 2.86 1.17 2.67 1.4 2.56 1.58 2.39 1.79 2.23 1.92 1.98 2.12 1.8 7.19 4.84.45.39.18.41-.08.45-.34.48Zm138.77-55.42-.36.19-.1.4.01.04.68 2.96.66 3.78.44 3.81.24 3.86.02 3.91-.2 3.94-.4 4-.63 4.03-.83 4.08-.01.07.01.55.23.51.41.38.53.18 2.16.17 2.18-.07 2.22-.3 2.25-.54 1.83-.69 1.76-.99 1.77-1.31 1.63-1.53 1.58-1.84 1.39-1.98 1.21-2.15.94-2.18.68-2.68.13-2.59-.33-2.55-.62-2.25-.83-2.09-1.03-1.91-1.24-1.75-1.83-1.95-2.15-1.68-2.46-1.43-2.78-1.17-4-1.03-3.97-.27-1.19.07Zm-193.9.39-2.88.4-2.83.97-2.79 1.53-2.54 1.97-2.15 2.3-1.71 2.58-1.17 2.75-.53 2.68-.09 3.31.33 3.07.77 2.83 1.19 2.57 1.83 2.58 2.35 2.28 2.89 1.98 3.41 1.67 3.92 1.26 4.26.69.76-.24.36-.72v-.01l-.11-2.15-1.3-7.4-.57-7.43.02-4.52.29-4.52.57-4.54.83-4.54-.09-.69-.5-.47-1-.32-2.22.02-1.3.11Z"/>
  <path fill="#fff" d="M104.8 169.23c9.151 0 16.57-7.419 16.57-16.57 0-9.152-7.419-16.57-16.57-16.57s-16.57 7.418-16.57 16.57c0 9.151 7.419 16.57 16.57 16.57Zm66.17-.01c9.162 0 16.59-7.428 16.59-16.59 0-9.162-7.428-16.59-16.59-16.59-9.163 0-16.59 7.428-16.59 16.59 0 9.162 7.427 16.59 16.59 16.59Zm-46.241 21.086c5.084-.169 9.085-3.939 8.936-8.421-.149-4.482-4.39-7.979-9.474-7.81-5.084.168-9.085 3.938-8.936 8.42.149 4.483 4.39 7.979 9.474 7.811Zm27.483-.123c4.905-.839 8.262-5.137 7.499-9.601-.763-4.464-5.357-7.403-10.262-6.565-4.905.838-8.263 5.137-7.5 9.601.763 4.464 5.358 7.403 10.263 6.565Zm-7.302 19.587 4.71-.69 4.79-.95 4.84-1.2 4.92-1.46 1.87-.32 1.48.38.81.69.41.64.27.8.06.85-.45 1.95-1.26 2.18-1.74 1.81-4.13 2.91-4.24 2.35-4.36 1.76-4.48 1.2-4.29.6-5.44.14-6.92-.33-2.51-.31-2.85-.61-6.72-2.08-2.83-1.18-2.57-1.43-2.31-1.67-2.06-1.91-1.82-2.19-1.05-1.96-.21-.95.01-.91.52-1.53 1.16-1.44 1.17-.63.7-.02.74.22 6.29 2.41 6.29 1.76 6.32 1.1 6.32.45 4.28-.06 4.28-.37Zm-93.98 100.6-4.27-1.13-4.55-.74-4.3-.271-3.98.21-3.38.64-2.89 1.08-2.42 1.54-1.82 1.91-.88 1.44-.67 1.65-.72 2.93-.25 2.73.22 2.54.7 2.341 1.44 2.529 2.1 2.25.79.65 2.49 1.56 2.89 1.15 3.08.67 3.41.23 3.6-.24 3.8-.68 3.92-1.14 3.88-1.55 1.22-.31 2.05-.179.8.06.67.269.7.69.48 1.06.82 3.79.28 3.79-.22 3.39-.66 3.391-.38.87-.64.789-2.11 1.531-3.23 1.379-3.63.95-5.82.87-5.16.361-4.75-.12-4.57-.621-2.64-.6-3.78-1.219-3.52-1.601-3.26-1.99-2.97-2.36-1.78-1.75-1.64-1.9-1.5-2.07-1.35-2.22-1.13-2.2-1.76-4.55-1.12-4.69-.47-4.859.19-4.861.83-4.72 1.49-4.57 2.07-4.26 2.69-3.959 2.51-2.841 2.88-2.59 2.36-1.73 2.43-1.469 2.52-1.211 2.59-.96 2.74-.709 2.81-.451 5.09-.35 4.94.09 4.76.52 4.61.951 3.17 1.089 2.59 1.49 1.67 1.671.52.899.33 1 .03.17.29 3.56-.15 4.46-.31 2.3-.58 1.851-.88 1.44-1.09.88-.88.339-1.04.12-2.3-.399Zm39.81.839h19.6l.38-.19.15-.4-.02-16.93.28-1.95.83-1.42 1.32-.87 1.83-.37 4.6-.05 5.89.32 1.11.24.87.48.94 1.22.47 1.83.23 3.81-.02 4.65-.24 8.29-.17 40.35-.2 1.62-.59 1.3-.77.58-1.72.42-2.87.24-4.6-.02-4.8-.43-1.2-.54-.7-1.11-.45-2.7-.09-3.57.01-13.88-.24-.68-.7-.23H90.86l-.69.29-.29.69.09 15.51-.11 1.54-.31 1.34-.51 1.13-.72.94-.84.68-1.02.5-1.19.34-1.37.16-4.49.05-4.54-.36-1.21-.27-1.51-.71-.37-.35-.2-.43-.04-.16-.52-2.65-.18-2.74-.11-48.25.27-4.73.38-1.85.86-1.37 1.35-.87 1.82-.39 5.85-.18 5.99.31.65.16.56.35.44.51.26.61.62 3.46.15 3.6-.07 6.82.18 5.65.18.49.52.17Zm69.87 32.971-.42.15-.22.39-.46 2.1-.74 2.32-.98 2.26-.89 1.49-.96.88-.84.36-1.05.16-10.12.01-1.34-.12-1.15-.3-.97-.47-.79-.65-.62-.86-.43-1.05-.15-1.62.1-.58.67-2.08 10.61-28.62 9.37-24.56 1.11-2.01 1.5-1.37 1.28-.58 1.47-.26 6.6-.21 6.44.23 1.99.4 1.6.89.47.43.87 1.17 1.01 1.88 2.48 5.9 15.26 39.98 1.58 4.78.92 4.61-.02 2.07-.26.84-.43.7-.64.59-.84.44-2.25.42-6.11.11-5.11-.21-1.04-.25-1.02-.71-.82-1.16-1.73-3.64-1.05-2.98-.6-.92-1.04-.35h-20.24Zm10.34-29.51-4.16 12.4.08.72.59.4.14.01h7.64l.47-.22.13-.5-.03-.11-1.92-5.5-2.06-6.82-.42-.61-.4.14-.06.09Zm82.74 3.82.56.57.39.11.23-.34.07-.79-.1-20.57.08-2.56.09-1.29.42-1.88.81-1.24.9-.64 1.09-.38 3.52-.34.93-.04 3.42-.02 3.54.28 1.12.27.87.5.87 1.05.57 1.58.66 3.66.22 2.86-.06 46.25-.16 2.86-.5 2.28-.84 1.69-1.17 1.14-.94.47-1.15.26-4.56.28-4.46-.2-.22-.03-1.49-.44-1.48-.92-1.44-1.37-1.65-2.02-19.68-25.39-.56-.58-.39-.13-.24.34-.08.8v27.33l-.17.41-.93.73-1.29.57-1.63.39-1.98.23-5.82.19-1.95-.13-1.31-.28-1.7-.87-1.24-1.21-.81-1.7-.26-2.11-.06-48.63-.01-.86.03-3.02.29-2.16.64-1.74.99-1.26 1.26-.79 1.69-.44 4.35-.25 5.72.2 1.78.45.87.55.77.76 6.18 7.63 5.29 6.88 10.11 13.05Z"/>
</svg>
