<svg width="298" height="290" viewBox="0 0 298 290" fill="none" xmlns="http://www.w3.org/2000/svg">
<path d="M195.17 46.7802L194.95 51.3001L194.28 55.7802L193.18 60.1702L191.66 64.4301L189.72 68.5201L187.4 72.4001L184.7 76.0402L181.66 79.3902L178.31 82.4301L174.67 85.1302L170.79 87.4502L166.7 89.3902L162.44 90.9102L158.05 92.0102L153.57 92.6801L149.05 92.9001L144.53 92.6801L140.05 92.0102L135.66 90.9102L131.4 89.3902L127.31 87.4502L123.43 85.1302L119.79 82.4301L116.44 79.3902L113.4 76.0402L110.7 72.4001L108.38 68.5201L106.44 64.4301L104.92 60.1702L103.82 55.7802L103.15 51.3001L102.93 46.7802L103.15 42.2602L103.82 37.7802L104.92 33.3902L106.44 29.1302L108.38 25.0402L110.7 21.1602L113.4 17.5201L116.44 14.1702L119.79 11.1302L123.43 8.43015L127.31 6.11014L131.4 4.17017L135.66 2.65015L140.05 1.55014L144.53 0.880157L149.05 0.660156L153.57 0.880157L158.05 1.55014L162.44 2.65015L166.7 4.17017L170.79 6.11014L174.67 8.43015L178.31 11.1302L181.66 14.1702L184.7 17.5201L187.4 21.1602L189.72 25.0402L191.66 29.1302L193.18 33.3902L194.28 37.7802L194.95 42.2602L195.17 46.7802ZM179.729 46.5023L179.555 43.5456L179.088 40.6198L178.331 37.7534L177.292 34.9738L175.981 32.3077L174.41 29.7809L172.595 27.4178L170.554 25.2411L168.305 23.2717L165.87 21.5286L163.274 20.0286L160.54 18.786L157.696 17.813L154.768 17.119L151.786 16.7104L148.776 16.5912L145.77 16.7628L142.794 17.2234L139.879 17.9686L137.052 18.9911L134.341 20.2811L131.771 21.8261L129.367 23.6115L127.153 25.6198L125.15 27.8319L123.377 30.2263L121.85 32.7802L120.586 35.4687L119.596 38.266L118.889 41.1453L118.473 44.0786L118.351 47.038L118.525 49.9948L118.992 52.9204L119.749 55.7869L120.788 58.5666L122.099 61.2325L123.669 63.7593L125.484 66.1225L127.526 68.2992L129.775 70.2686L132.209 72.0117L134.805 73.5117L137.539 74.7542L140.383 75.7273L143.311 76.4214L146.294 76.83L149.303 76.9491L152.31 76.7775L155.285 76.3169L158.2 75.5717L161.027 74.5493L163.739 73.2592L166.308 71.7141L168.712 69.9289L170.926 67.9204L172.93 65.7083L174.703 63.314L176.229 60.7602L177.493 58.0717L178.484 55.2744L179.19 52.3951L179.607 49.4616L179.729 46.5023Z" fill="black"/>
<path d="M74.8799 100.99L72.2599 109.64L69.8499 118.39L68.6499 124.19L67.6799 130.01L66.9299 135.84L66.3999 141.69L66.0099 151.97L66.2999 162.3L67.2799 172.68L68.9299 183.11L68.7599 183.71L68.1799 183.92L67.9799 183.87L61.7599 181.47L54.9199 179.45L53.7099 179L52.7999 178.31L52.2799 177.53L51.9399 176.52L51.3199 173.46L50.4299 165.28L49.9499 157.27L49.8799 149.43L50.2199 141.75L51.1799 132.11L52.6699 122.64L54.6899 113.34L57.2399 104.2L59.9999 96.0604L63.1999 88.0504L66.8399 80.1804L70.9099 72.4504L71.0399 72.2704L71.4199 71.9904L71.8899 71.9004L72.3599 72.0204L72.7199 72.3304L78.2199 79.1804L84.0399 85.3204L90.0599 90.6304L96.3099 95.1404L100.41 97.6404L104.74 100L109.28 102.23L114.04 104.31L118.19 105.92L122.39 107.31L126.62 108.49L130.9 109.45L138 110.58L145.22 111.13L152.55 111.11L159.99 110.52L164.76 109.82L169.58 108.81L174.45 107.51L179.38 105.9L184.98 103.73L190.39 101.27L195.6 98.5104L200.63 95.4504L207.48 90.5604L213.95 85.0704L220.02 78.9704L225.69 72.2604L225.77 72.1804L226.36 71.9804L226.9 72.3004L230.07 77.3104L232.47 82.1004L235.76 89.9204L236.01 90.5304L238.31 96.4804L240.36 102.5L242.17 108.57L243.72 114.69L245.87 125.63L247.25 136.75L247.87 148.05L247.72 159.52L247.02 168.38L245.73 177.45L245.35 178.23L244.63 178.69L230.43 182.89L230.18 182.93L229.7 182.85L229.31 182.56L229.09 182.13L229.07 181.65L230.43 173.42L231.36 165.06L231.88 156.59L231.97 147.99L231.61 139.66L230.78 131.46L229.46 123.39L227.66 115.43L225.51 108.01L222.93 100.69L222.35 100.12L221.54 100.19L221.41 100.28L213.97 105.93L206.27 110.95L198.31 115.33L190.1 119.09L184.88 121.09L179.56 122.85L174.15 124.37L168.63 125.65L164.11 126.34L157.89 126.85L147.12 127.09L140.14 126.9L133.83 126.41L128.21 125.62L123.27 124.53L118.24 123.05L112.94 121.24L107.38 119.11L101.56 116.66L95.0899 113.45L88.5499 109.47L82.2499 105.06L76.4199 100.52L76.2599 100.41L75.4299 100.37L74.8799 100.99Z" fill="black"/>
<path d="M148.6 234.66L150.72 232.95L152.19 231.44L159.88 222.41L165.22 215.79L170.12 208.94L174.59 201.87L178.61 194.58L182.74 185.84L186.28 176.8L189.23 167.46L191.59 157.81L192.61 152.29L193.39 146.57L193.92 140.62L194.22 134.47L194.39 133.39L194.84 132.53L195.61 131.86L199.17 129.85L201.85 128.54L208.61 125.84L209.08 125.81L209.52 125.97L209.85 126.3L210.02 126.74L210.03 126.9L209.92 134.8L209.53 142.44L208.86 149.83L207.91 156.97L206.4 164.79L204.05 173.93L201.42 182.17L198.22 190.25L193.83 199.61L188.97 208.64L183.66 217.32L177.88 225.67L170.67 234.83L162.85 243.54L154.42 251.81L145.38 259.63L138.17 265.16L130.76 270.2L123.14 274.74L115.3 278.8L110.61 280.92L105.85 282.81L101.03 284.48L96.15 285.92L91.5 287.07L86.8 288.02L82.92 288.57L78.43 288.95L67.63 289.19L62.2 289L57.25 288.54L52.78 287.8L48.79 286.78L41.26 284.1L34.4 280.89L28.23 277.17L25.4 275.11L22.74 272.92L17.5 267.88L12.96 262.52L9.11002 256.84L5.95004 250.84L3.66003 245.06L1.95004 239L0.830017 232.68L0.290039 226.09L0.370026 222.72L0.870026 219.27L1.79004 215.74L3.12003 212.13L4.59003 209.17L6.44003 206.33L8.69003 203.6L11.33 200.99L14.57 198.39L18.05 196.23L20.79 194.9L23.67 193.82L26.67 192.97L29.81 192.37L35.49 191.76L41.18 191.65L46.89 192.03L50.69 192.59L54.68 193.48L58.87 194.7L63.24 196.25L66.48 197.56L71.94 200.12L77.24 203.05L82.39 206.36L87.37 210.03L90.95 213.05L94.48 216.43L97.95 220.17L101.37 224.27L105.15 229.3L108.71 234.55L112.04 240.02L115.15 245.71L115.24 246.26L114.85 246.68L103.28 252.99L102.51 253.28L101.83 253.25L101.25 252.9L100.76 252.23L96.5 244.79L91.95 237.97L88.68 233.73L85.19 229.77L81.47 226.09L77.52 222.69L73.67 219.79L69.61 217.12L65.37 214.7L60.93 212.52L57.13 210.95L53.37 209.71L49.64 208.8L45.95 208.22L41.52 207.86L37.4 207.79L33.59 208.02L30.08 208.55L28.02 209.08L26.11 209.79L24.35 210.71L22.75 211.81L21.1 213.31L19.65 215.07L18.39 217.07L17.34 219.33L16.51 224.16L16.32 226.75L16.42 228.98L17.19 234.11L18.26 238.69L19.62 242.71L21.28 246.19L23.54 249.87L26.03 253.3L28.76 256.47L31.71 259.38L35.38 262.41L39.35 265.1L43.62 267.46L48.19 269.48L52.52 270.93L57.21 272.01L62.24 272.72L67.63 273.07L72.32 273.08L76.97 272.84L81.56 272.33L86.1 271.58L90.14 270.68L94.13 269.57L98.09 268.26L102 266.74L107.42 264.34L112.7 261.72L117.84 258.89L122.85 255.84L129.55 251.25L135.99 246.24L136.17 245.88L136.04 245.51L136.01 245.48L132.82 242.34L129.73 238.85L122.35 229.48L115.64 220L109.6 210.4L104.23 200.69L99.71 191.25L96.18 182.36L93.24 173.07L90.94 163.64L89.3 154.21L88.29 144.66L87.9 134.97L88.13 125.16L88.14 125.09L88.34 124.85H88.66L103.09 131.98L103.8 132.6L104.02 133.52L103.98 139.03L104.21 144.49L104.69 149.91L105.43 155.29L106.69 161.81L108.34 168.27L110.38 174.66L112.8 180.99L115.43 186.87L119.02 194.18L122.65 200.91L126.28 206.8L130.57 213.04L135.05 219.14L141.27 226.99L147.84 234.58L148.2 234.77L148.6 234.66Z" fill="black"/>
<path d="M252.5 268.43L256.99 266.16L261.13 263.55L264.93 260.62L268.38 257.36L271.18 254.15L273.7 250.67L275.94 246.93L277.9 242.92L279.48 238.58L280.56 233.91L281.14 228.9L281.21 223.55L281.04 221.55L280.65 219.75L280.05 218.14L279.23 216.72L276.84 213.89L274.07 211.66L273.63 211.39L271.46 210.2L269.39 209.31L265.79 208.29L260.77 207.56L258.39 207.43L255.75 207.54L251.82 208L247.97 208.69L244.21 209.62L240.53 210.79L236.8 212.25L233.17 213.97L229.62 215.94L226.17 218.16L222.07 221.17L218.21 224.39L214.58 227.81L211.19 231.44L206.86 236.86L201.58 244.65L197.22 252.31L196.79 252.85L196.18 253.18L195.5 253.25L194.84 253.04L194.8 253.02L183.87 246.72L183.36 246.09L183.41 245.28L185.92 240.16L188.77 235.15L191.94 230.26L195.45 225.47L200.69 219.25L206.31 213.61L212.29 208.55L218.65 204.07L225.49 200.11L232.72 196.74L239.21 194.42L245.82 192.76L252.23 191.8L258.76 191.43L262.21 191.52L265.62 191.86L271.49 193.07L277.25 195.05L281.46 197.14L285.25 199.74L288.94 203.19L292.14 207.26L294.24 210.99L295.78 215.14L296.78 219.71L297.22 224.71L297.21 228.71L296.93 232.64L296.39 236.51L295.57 240.31L293.98 245.5L291.91 250.59L289.5 255.39L286.73 259.92L283.62 264.16L279.22 269.09L274.27 273.58L268.77 277.62L262.73 281.23L257.54 283.77L252.39 285.8L247.29 287.31L242.24 288.31L237.78 288.83L232.96 289.13L227.79 289.21L222.27 289.07L219.78 288.93L212.11 288.06L204.48 286.54L196.9 284.36L189.36 281.54L181.9 278.09L172.7 273.25L167.46 269.99L161.05 265.32L160.75 264.87L161.01 264.4L172.02 254.63L172.58 254.39L173.16 254.54L185.49 262.16L191.36 265.1L197.32 267.59L203.38 269.61L209.54 271.18L216.52 272.38L223.63 273.02L230.85 273.08L238.2 272.58L241.6 272.05L245.12 271.19L248.75 269.98L252.5 268.43Z" fill="black"/>
</svg>
