<svg width="298" height="289" viewBox="0 0 298 289" fill="none" xmlns="http://www.w3.org/2000/svg">
<path d="M194.95 46.17L194.73 50.7L194.06 55.18L192.96 59.57L191.44 63.84L189.5 67.93L187.17 71.82L184.47 75.46L181.43 78.82L178.07 81.86L174.43 84.56L170.54 86.89L166.45 88.83L162.18 90.35L157.79 91.45L153.31 92.12L148.78 92.34L144.25 92.12L139.77 91.45L135.38 90.35L131.11 88.83L127.02 86.89L123.13 84.56L119.49 81.86L116.13 78.82L113.09 75.46L110.39 71.82L108.06 67.93L106.12 63.84L104.6 59.57L103.5 55.18L102.83 50.7L102.61 46.17L102.83 41.64L103.5 37.16L104.6 32.77L106.12 28.5L108.06 24.41L110.39 20.52L113.09 16.88L116.13 13.52L119.49 10.48L123.13 7.78003L127.02 5.45001L131.11 3.51001L135.38 1.99002L139.77 0.890015L144.25 0.220001L148.78 0L153.31 0.220001L157.79 0.890015L162.18 1.99002L166.45 3.51001L170.54 5.45001L174.43 7.78003L178.07 10.48L181.43 13.52L184.47 16.88L187.17 20.52L189.5 24.41L191.44 28.5L192.96 32.77L194.06 37.16L194.73 41.64L194.95 46.17ZM179.44 45.9995L179.277 43.0441L178.82 40.1187L178.074 37.2515L177.046 34.4701L175.745 31.8013L174.185 29.2708L172.38 26.9029L170.348 24.7204L168.109 22.7445L165.683 20.994L163.094 19.4859L160.367 18.2347L157.529 17.2525L154.607 16.5486L151.628 16.1299L148.622 16.0004L145.618 16.1614L142.644 16.6112L139.729 17.3457L136.902 18.3576L134.188 19.6373L131.615 21.1724L129.208 22.9482L126.989 24.9475L124.98 27.1511L123.2 29.5377L121.667 32.0844L120.394 34.7667L119.395 37.5588L118.679 40.4336L118.253 43.3636L118.121 46.3205L118.284 49.2759L118.741 52.2013L119.487 55.0685L120.515 57.8499L121.815 60.5187L123.376 63.0492L125.18 65.4171L127.212 67.5996L129.452 69.5755L131.878 71.326L134.467 72.8341L137.193 74.0853L140.031 75.0675L142.954 75.7714L145.932 76.1901L148.938 76.3196L151.943 76.1586L154.917 75.7088L157.831 74.9743L160.659 73.9624L163.372 72.6827L165.945 71.1476L168.353 69.3718L170.572 67.3725L172.581 65.1689L174.361 62.7823L175.894 60.2356L177.167 57.5533L178.166 54.7612L178.882 51.8864L179.308 48.9564L179.44 45.9995Z" fill="white"/>
<path d="M75.3903 99.6609L74.9803 99.6509L74.7003 99.9509L74.6903 99.9809L71.1603 112.251L69.1203 120.351L67.5503 128.751L66.5003 137.251L65.9403 146.021L65.8803 154.931L66.3203 164.071L67.2603 173.241L68.7003 182.571L68.7103 182.761L68.3803 183.251L67.7903 183.291L61.4303 180.861L54.6103 178.871L53.6403 178.521L52.8803 178.011L52.1603 177.151L51.6803 176.091L51.0203 172.711L50.9303 171.991L50.2603 166.131L49.8103 160.281L49.5803 154.431L49.5703 148.581L49.9603 139.911L50.8403 131.241L52.2103 122.591L54.0703 113.941L56.6803 104.401L59.8103 95.1209L63.4603 86.1109L67.6303 77.3609L70.6903 71.7009L70.8003 71.5409L71.5603 71.2109L72.3003 71.5909L77.5403 78.0609L82.9903 83.9409L83.0003 83.9509L86.0903 86.8809L89.3003 89.6009L92.7303 92.2109L96.2903 94.6409L100.07 96.9509L104.16 99.2009L113 103.351L120.75 106.231L128.67 108.381L136.06 109.691L143.59 110.381L151.26 110.461L159.07 109.911L163.86 109.241L168.69 108.271L173.57 107.001L178.5 105.431L184.02 103.331L189.37 100.951L194.53 98.2709L199.5 95.3109L206.61 90.3409L213.31 84.7309L219.6 78.4709L225.48 71.5609L225.54 71.5009L226.05 71.3209L226.52 71.5809L228.74 74.8409L230.49 77.9609L233.22 83.7609L235.71 89.5909L237.96 95.4609L239.98 101.371L241.76 107.311L243.31 113.301L244.63 119.321L245.7 125.371L246.57 131.631L247.18 137.931L247.54 144.261L247.66 150.641L247.53 157.051L247.15 163.511L246.53 170.001L245.65 176.531L245.19 177.511L244.29 178.091L230.08 182.321L229.84 182.361L229.37 182.281L228.99 182.011L228.77 181.591L228.75 181.121L230.26 171.551L231.22 161.941L231.53 156.011L231.63 150.071L231.51 144.121L231.19 138.151L230.1 128.301L228.84 121.141L227.17 114.041L225.11 107.001L222.65 100.021L222.58 99.8809L221.92 99.4209L221.14 99.6309L216.44 103.341L211.61 106.791L206.64 109.991L201.53 112.931L192.89 117.191L183.88 120.781L178.23 122.611L172.62 124.101L167.04 125.241L161.5 126.021L152.63 126.561L141.5 126.471L135.07 126.041L128.85 125.171L122.84 123.891L117.04 122.171L107.2 118.551L98.4603 114.751L93.5503 112.161L88.3303 108.931L82.7803 105.051L76.9103 100.531L75.3903 99.6609Z" fill="white"/>
<path d="M135.8 245.171L132.63 241.701L129.43 238.261L122.44 229.471L115.95 220.361L110.01 211.011L104.56 201.331L100.4 192.851L96.82 184.241L93.83 175.491L91.42 166.601L89.4 156.301L88.13 145.841L87.61 135.191L87.86 124.361L88.2 124.111L88.25 124.131L102.95 131.471L103.59 132.071L103.81 132.911L103.75 138.371L103.95 143.791L104.42 149.171L105.15 154.511L106.28 160.421L107.73 166.281L109.52 172.091L111.63 177.841L115.56 187.041L119.76 195.551L124.21 203.381L128.93 210.511L136.45 220.611L144.3 230.321L147.76 233.951L148.32 234.151L148.86 233.901L156.2 225.711L162.15 218.601L165.76 213.911L169.19 209.081L172.43 204.111L175.47 199.031L178.27 193.881L180.86 188.631L183.24 183.281L185.4 177.841L187.3 172.401L188.97 166.891L190.38 161.421L191.55 155.891L192.48 150.341L193.17 144.751L193.6 139.231L193.78 133.681L194.03 132.611L194.71 131.741L196.78 130.331L199.35 129.021L202.9 127.381L206.33 125.851L208.58 125.321L209.44 125.541L209.75 126.391L209.66 136.241L209.03 145.881L207.83 155.331L206.09 164.581L203.56 174.331L200.33 183.731L196.37 193.191L191.91 202.321L186.97 211.121L181.55 219.591L178.5 223.901L173.71 230.191L168.69 236.231L163.44 242.041L157.95 247.611L151.99 253.161L145.78 258.441L139.31 263.471L132.59 268.231L126.5 272.111L120.27 275.621L113.88 278.751L107.35 281.501L99.95 284.121L92.37 286.271L86.79 287.451L81.17 288.211L75.75 288.551L68.02 288.651L61.95 288.471L56.7 287.981L52.22 287.161L48.16 286.071L44.24 284.801L40.47 283.351L36.84 281.721L33.36 279.921L30.03 277.931L26.84 275.771L23.81 273.421L23.68 273.321L19.05 269.171L14.92 264.741L11.28 260.031L8.13 255.041L5.40002 249.611L3.20001 243.881L1.52002 237.861L0.360016 231.541L0 227.651L0.0100098 223.761L0.390015 220.011L1.14001 216.331L2.22 212.931L3.68002 209.661L5.44 206.661L7.56 203.861L7.74002 203.651L9.79001 201.481L11.95 199.511L14.24 197.751L16.65 196.201L21.15 193.991L26.01 192.411L29.59 191.671L33.34 191.191L37.32 190.961L41.36 190.991L45.45 191.281L49.52 191.831L53.5 192.621L57.36 193.651L58.48 194.001L65.96 196.781L73.2 200.271L80.22 204.461L87.02 209.351L90.87 212.591L94.69 216.261L98.35 220.241L101.95 224.621L105.41 229.311L108.75 234.321L111.95 239.661L114.96 245.231L114.85 245.671L108.7 249.471L105.56 251.061L102.37 252.451L101.4 252.471L100.66 251.841L97.69 246.601L94.78 241.891L91.95 237.711L89.18 234.051L86.1 230.441L82.84 227.061L79.41 223.901L75.81 220.971L71.97 218.221L67.95 215.711L63.75 213.431L59.37 211.381L57.88 210.761L52.3 208.941L46.46 207.771L40.37 207.241L34.02 207.361L30.04 207.891L26.54 208.921L23.54 210.441L21.03 212.451L18.93 215.091L17.36 218.271L16.48 221.421L16.08 224.871L16.17 228.621L16.75 232.671L17.54 236.241L18.47 239.431L19.56 242.381L20.89 245.241L22.43 247.961L24.27 250.661L27.77 254.961L31.55 258.801L35.61 262.161L39.94 265.041L43.03 266.731L46.25 268.191L49.6 269.441L53.07 270.481L56.68 271.301L60.41 271.901L64.26 272.291L68.25 272.461L73.91 272.371L79.47 271.911L84.94 271.101L90.32 269.921L95.52 268.401L100.62 266.541L107.39 263.591L113.96 260.281L119.64 257.041L125.16 253.511L130.53 249.701L135.75 245.611L135.8 245.171Z" fill="white"/>
<path d="M172.571 253.71L179.331 258.03L185.371 261.61L191.551 264.68L197.871 267.25L204.331 269.31L209.931 270.65L215.631 271.63L221.431 272.24L227.331 272.49L232.811 272.37L237.921 271.88L242.661 271.03L247.031 269.82L251.181 268.26L255.101 266.4L258.811 264.25L262.291 261.82L265.101 259.49L267.751 256.95L270.241 254.2L272.561 251.23L274.321 248.63L275.881 245.95L277.231 243.19L278.371 240.36L279.771 235.62L280.621 230.68L280.931 225.54L280.691 220.2L280.371 218.73L279.701 217.22L278.681 215.66L277.301 214.06L275.511 212.38L273.581 210.93L270.431 209.19L266.961 207.94L261.161 207.06L257.971 206.82L255.281 206.91L250.931 207.49L246.681 208.35L242.541 209.49L238.501 210.9L233.841 212.94L229.321 215.37L224.961 218.19L220.751 221.4L216.781 224.87L213.081 228.52L209.631 232.37L206.441 236.41L203.881 240.06L200.081 246.11L196.761 251.98L196.401 252.421L195.901 252.69L195.331 252.74L194.781 252.57L194.761 252.56L183.381 245.99L182.911 245.46L182.991 244.76L186.521 237.8L190.641 231.08L195.361 224.59L200.671 218.35L205.361 213.58L210.291 209.24L215.481 205.32L220.921 201.82L226.391 198.85L232.101 196.27L238.031 194.09L244.201 192.3L247.901 191.7L255.141 190.88L258.171 190.73L261.351 190.9L267.521 191.62L271.681 192.54L275.471 193.74L278.891 195.2L281.931 196.93L285.371 199.45L288.371 202.22L290.931 205.23L293.041 208.5L294.871 212.4L296.161 216.61L296.901 221.12L297.101 225.94L296.881 230.4L296.351 234.76L295.501 239.02L294.351 243.18L293.211 246.41L291.881 249.57L289.521 254.28L286.851 258.71L283.881 262.87L280.611 266.76L275.571 271.7L269.931 276.11L263.721 279.99L256.921 283.33L252.551 285.04L248.271 286.37L243.231 287.48L237.901 288.21L231.991 288.58L225.141 288.62L217.451 288.18L209.711 287.11L202.041 285.38L194.431 283.02L186.881 280.01L179.921 276.7L173.211 273.05L166.771 269.06L160.591 264.73L160.341 264.35L160.561 263.96L172.051 253.75L172.571 253.71Z" fill="white"/>
</svg>
